The Master 2012 DVDRiP AC3-5 1 XviD-AXED

IMDB:  
http://www.imdb.com/title/tt1560747/

PLOT INFO:
Returning from Navy service in World War II, Freddie Quell drifts through a series of PTSD-driven breakdowns. Finally he stumbles upon a cult which engages in exercises to clear emotions and he becomes deeply involved with them.

MEDIAINFO:
General
Complete name                    : The.Master.2012.DVDRiP.AC3-5.1.XviD-AXED.avi
Format                           : AVI
Format/Info                      : Audio Video Interleave
Format profile                   : OpenDML
File size                        : 2.00 GiB
Duration                         : 2h 17mn
Overall bit rate                 : 2 082 Kbps
Writing application              : AVI-Mux GUI 1.17.8.3, Feb 16 201019:42:50

Video
ID                               : 0
Format                           : MPEG-4 Visual
Format profile                   : Advanced Simple@L5
Format settings, BVOP            : 1
Format settings, QPel            : No
Format settings, GMC             : No warppoints
Format settings, Matrix          : Default (H.263)
Codec ID                         : XVID
Codec ID/Hint                    : XviD
Duration                         : 2h 17mn
Bit rate                         : 1 628 Kbps
Width                            : 720 pixels
Height                           : 384 pixels
Display aspect ratio             : 1.875
Frame rate                       : 23.976 fps
Color space                      : YUV
Chroma subsampling               : 4:2:0
Bit depth                        : 8 bits
Scan type                        : Progressive
Compression mode                 : Lossy
Bits/(Pixel*Frame)               : 0.246
Stream size                      : 1.56 GiB (78%)
Writing library                  : XviD 1.2.1 (UTC 2008-12-04)

Audio
ID                               : 1
Format                           : AC-3
Format/Info                      : Audio Coding 3
Mode extension                   : CM (complete main)
Codec ID                         : 2000
Duration                         : 2h 17mn
Bit rate mode                    : Constant
Bit rate                         : 448 Kbps
Channel(s)                       : 6 channels
Channel positions                : Front: L C R, Side: L R, LFE
Sampling rate                    : 48.0 KHz
Bit depth                        : 16 bits
Compression mode                 : Lossy
Stream size                      : 441 MiB (22%)
Alignment                        : Aligned on interleaves
Interleave, duration             : 64 ms (1.53 video frames)
Interleave, preload duration     : 5376 ms
Title                            : VTS_05_1 T80 3_2ch 448Kbps DELAY 4671ms


SOURCE: 
R1 Retail DVD DISC


NOTES: 
Movie is 138 minutes long. Went with 2 gigs, which allowed for relatively high bitrate, as well as untouched audio(aside from tweaking delay). The Blu Ray is in possession as well, but it was giving me shit, so I thought I'd get this out, and work on it, if nobody else has their hands on it yet. Enjoy this for now, or don't.  


Poster:

 
http://i.imgur.com/zi3KKQa.jpg


Screenshots:

 
http://i.imgur.com/Ymr0Ubt.png

 
http://i.imgur.com/hfRAyth.png

 
http://i.imgur.com/QgzVR9Q.png


SEED AND ENJOY!